# xmcd
#
# Track frame offsets:
#	150
#	19927
#	35955
#	59075
#	76352
#	94615
#	112178
#	127096
#	146382
#	162149
#	182591
#	198526
#	213909
#
# Disc length: 2900 seconds
#
# Revision: 0
# Processed by: cddbd v1.5PL3 Copyright (c) Steve Scherf et al.
# Submitted via: EasyCDDAExtractor 5.0.2.1
#
DISCID=bf0b520d
DTITLE=Alex Parche Band - Get down to business
DYEAR=1999
DGENRE=Blues
TTITLE0=Nightmare
TTITLE1=Do you really know how bad I am?
TTITLE2=Get down in business
TTITLE3=M and O Blues
TTITLE4=Cool running man
TTITLE5=Love my stuff
TTITLE6=Eight bars
TTITLE7=Run for cover
TTITLE8=Snakes
TTITLE9=Low down woman
TTITLE10=Mississippi Blues
TTITLE11=Sweet home Chicago
TTITLE12=Sweet home Chicago (Reprise)
EXTD=
EXTT0=
EXTT1=
EXTT2=
EXTT3=
EXTT4=
EXTT5=
EXTT6=
EXTT7=
EXTT8=
EXTT9=
EXTT10=
EXTT11=
EXTT12=
PLAYORDER=
